<?xml version="1.0" encoding="UTF-8"?>
<svg id="Layer_2" xmlns="http://www.w3.org/2000/svg" viewBox="0 0 753.95 324.81">
  <defs>
    <style>
      .cls-1 {
        fill: #e10600;
      }
    </style>
  </defs>
  <g id="Layer_1-2" data-name="Layer_1">
    <g>
      <path class="cls-1" d="M190.63,106.77l-83.56,80.63H.51L133.07,56.47C182.38,7.95,206.12,0,290.17,0h331.9l-72.06,70.19h-250.35c-62.78,0-76.13,4.81-109.02,36.58ZM539.32,81.41h-238.1c-63.23,0-73.12,4.81-101.82,33.37l-73.05,72.61h98.82l23.54-23.41c15.56-15.49,22.45-16.92,53.78-16.92h170.81l66.06-65.65h-.03ZM565.08,187.4L753.95,0h-117.38l-188.35,187.4h116.87Z"/>
      <path d="M161.76,323.09H29.12c-15.14,0-24.32-1.83-27.55-5.48-3.24-3.65-1.45-9.17,5.35-16.57,3.15-3.43,6.69-6.49,10.61-9.17,3.92-2.68,8.62-5.15,14.06-7.39,5.44-2.24,12.01-4.44,19.67-6.6,7.66-2.16,16.68-4.38,27.06-6.67l103.49-23.1c2.68-.6,5.04-1.32,7.09-2.11,2.05-.79,3.85-2.02,5.39-3.7,1.61-1.76,2.11-3.04,1.48-3.83-.64-.79-2.36-1.19-5.17-1.19h-123.14l12.15-13.2h128.28c17.69,0,28.58,1.67,32.66,5.02,4.09,3.35,2.62,8.84-4.44,16.5-5.83,6.34-13.86,11.77-24.05,16.3-10.21,4.53-24.64,8.87-43.31,13l-110.24,24.42c-2.42.53-4.66,1.25-6.69,2.18s-3.67,2.05-4.88,3.37c-1.54,1.67-2.11,2.93-1.69,3.76s1.85,1.25,4.33,1.25h124.32l-12.15,13.2v.02Z"/>
      <path d="M276.98,324.81h-39.59c-12.59,0-22.33-.77-29.22-2.31s-11.38-3.83-13.47-6.86-2.02-6.82.22-11.35c2.24-4.53,6.07-9.75,11.49-15.64l9.48-10.3c5.43-5.88,11.2-11.11,17.3-15.64,6.1-4.53,13-8.32,20.68-11.35,7.68-3.04,16.39-5.32,26.12-6.86,9.73-1.54,20.9-2.31,33.47-2.31h39.59c12.57,0,22.33.77,29.22,2.31s11.38,3.83,13.47,6.86c2.09,3.04,2.02,6.82-.22,11.35-2.24,4.53-6.07,9.75-11.49,15.64l-9.48,10.3c-5.43,5.9-11.2,11.11-17.3,15.64-6.1,4.53-13,8.32-20.68,11.35-7.68,3.02-16.39,5.33-26.12,6.86-9.73,1.54-20.9,2.31-33.47,2.31ZM248.53,312.27h40.38c7.66,0,14.57-1.63,20.73-4.88,6.16-3.26,12.52-8.45,19.08-15.58l15.43-16.75c6.49-7.04,9.64-12.19,9.46-15.43-.16-3.26-4.09-4.88-11.73-4.88h-40.38c-7.66,0-14.57,1.63-20.73,4.88-6.16,3.26-12.48,8.4-18.97,15.43l-15.43,16.75c-6.56,7.13-9.75,12.32-9.59,15.58s4.09,4.88,11.73,4.88h.02Z"/>
      <path d="M361.98,323.09l72.9-79.19h110.33c8.18,0,14.61.55,19.27,1.65,4.66,1.1,7.66,2.79,8.98,5.08s1.08,5.24-.75,8.84c-1.83,3.61-5,7.88-9.55,12.79l-46.78,50.81h-40.25l48.25-52.39c4.78-5.19,6.65-8.76,5.63-10.69-1.04-1.94-5.24-2.9-12.63-2.9h-54.37l-60.75,65.99h-40.27Z"/>
      <path d="M674.3,242.18h32.99c11.79,0,21.3.62,28.52,1.85,7.22,1.23,12.28,3.12,15.16,5.68,2.88,2.55,3.67,5.83,2.36,9.83-1.32,4-4.51,8.78-9.62,14.32l-13.49,14.65h-119.84l-5.96,6.47c-4.86,5.28-6.25,9.2-4.14,11.75,2.09,2.55,8.54,3.83,19.38,3.83h89.75l-11.55,12.54h-95.81c-12.23,0-22.07-.57-29.49-1.72-7.44-1.14-12.61-2.99-15.49-5.54s-3.59-5.9-2.11-10.03c1.47-4.12,4.89-9.11,10.23-14.92l11.55-12.54c5.43-5.88,11.2-11.11,17.3-15.64,6.1-4.53,13-8.32,20.68-11.35,7.68-3.04,16.39-5.32,26.12-6.86s20.9-2.31,33.47-2.31v-.02ZM692.44,254.73h-30.1c-7.66,0-14.5,1.58-20.55,4.75-6.05,3.17-12.63,8.63-19.76,16.37l-.6.66h78.27l4.25-4.62c5.43-5.88,7.33-10.23,5.7-13-1.63-2.77-7.37-4.16-17.23-4.16h.02Z"/>
      <path class="cls-1" d="M731.54,322.61v-7.33h-3.57v-2.07h9.66v2.07h-3.57v7.33h-2.51Z"/>
      <path class="cls-1" d="M737.68,322.61l.59-6.73c.09-1.01.35-1.72.82-2.16.46-.44,1.04-.66,1.76-.66.75,0,1.36.24,1.81.7.44.46.73,1.1.86,1.91l.73,4.67c0,.09.04.18.07.22.04.05.09.07.18.07s.15-.04.18-.09c.04-.05.07-.15.07-.24l.71-4.66c.11-.79.4-1.43.84-1.89.44-.46,1.04-.7,1.8-.7.79,0,1.39.22,1.78.68.38.44.62,1.17.71,2.16l.59,6.73h-2.42l-.49-7.08s-.02-.15-.04-.22c-.02-.05-.07-.09-.17-.09-.07,0-.13.02-.17.07-.04.05-.07.13-.07.2l-.84,5.02c-.11.66-.38,1.21-.81,1.61s-.99.62-1.7.62-1.3-.22-1.74-.64-.71-.95-.81-1.61l-.88-5c0-.09-.06-.16-.09-.22-.04-.05-.09-.07-.17-.07-.09,0-.15.04-.17.09-.04.05-.06.13-.06.22l-.49,7.08h-2.42,0Z"/>
    </g>
  </g>
</svg>